# xmcd CD database file
#
# Track frame offsets:
#	150
#	10821
#	23032
#	39548
#	52159
#	63502
#	74851
#	84159
#	99368
#	111160
#	126404
#	141605
#
# Disc length: 2099 seconds
#
# Revision: 1
# Processed by: cddbd v1.5.1PL0 Copyright (c) Steve Scherf et al.
# Submitted via: jetAudio 5
#
DISCID=af08310c
DTITLE=Judy Roderick - Ain't Nothin' But the Blues
DYEAR=1900
DGENRE=
TTITLE0=Wild Women Don't Sing The Blues
TTITLE1=Come Back Baby
TTITLE2=Brother Can You Spare A Dime
TTITLE3=Mama Goes Where Papa Goes (Or Papa Don't Go Out Tonight)
TTITLE4=Baltimore Oriole
TTITLE5=Miss Brown To You
TTITLE6=He Was A Friend Of Mine
TTITLE7=Blues On My Ceiling
TTITLE8=I'm Goning To Live The Life I Sing About In My Song
TTITLE9=Things About Going My Way
TTITLE10=Don't Let The Sun Catch You Crying
TTITLE11=Moanin' Low
EXTD=
EXTT0=
EXTT1=
EXTT2=
EXTT3=
EXTT4=
EXTT5=
EXTT6=
EXTT7=
EXTT8=
EXTT9=
EXTT10=
EXTT11=
PLAYORDER=
